<svg width="164" height="164" viewBox="0 0 164 164" version="1.1" xmlns="http://www.w3.org/2000/svg" xmlns:xlink="http://www.w3.org/1999/xlink">
<title>icon-BrandVisualStudioIDE</title>
<desc>Created using Figma</desc>
<g id="Canvas" transform="matrix(2 0 0 2 9374 5826)">
<g id="icon-BrandVisualStudioIDE">
<g id="BrandVisualStudioIDE2017RTW_40x">
<g id="Vector">
<use xlink:href="#path0_fill" transform="translate(-4687 -2913)" fill="#865FC5"/>
</g>
</g>
</g>
</g>
<defs>
<path id="path0_fill" d="M 61.5005 0L 61.5005 70.4277L 5.34619e-11 61.2929L 61.5005 82L 82 73.472L 82 8.528L 61.5005 0ZM 21.133 39.4502L 39.9677 58.0826L 51.2436 53.2856L 51.2436 16.7547L 39.9677 11.9577L 21.133 30.5921L 9.79153 22.0436L 5.11923 23.6078L 5.11923 46.4345L 9.79153 47.9987L 21.133 39.4502ZM 39.9677 25.254L 39.9677 44.7905L 27.0087 35.0222L 39.9677 25.254ZM 9.79153 28.2305L 16.6554 35.0201L 9.79153 41.8118L 9.79153 28.2305Z"/>
</defs>
</svg>
